# xmcd
#
# Track frame offsets:
#	150
#	21544
#	56214
#	138489
#	190986
#	205314
#	228777
#	268892
#	291310
#
# Disc length: 4097 seconds
#
# Revision: 1
# Processed by: cddbd v1.5.2PL0 Copyright (c) Steve Scherf et al.
# Submitted via: audiograbber 1.83.01
#
DISCID=920fff09
DTITLE=Grateful Dead - 73-06-22A PNE Coliseum, Vancouver, Canada
DYEAR=1900
DGENRE=
TTITLE0=Big River
TTITLE1=Tennessee Jed
TTITLE2=Playing In The Band
TTITLE3=Here Comes Sunshine
TTITLE4=Promised Land
TTITLE5=Brown Eyed Women
TTITLE6=Black Peter
TTITLE7=Greatest Story Ever Told
TTITLE8=Big Railroad Blues
EXTD=
EXTT0=
EXTT1=
EXTT2=
EXTT3=
EXTT4=
EXTT5=
EXTT6=
EXTT7=
EXTT8=
PLAYORDER=
